<?xml version="1.0" encoding="UTF-8" standalone="no"?><!DOCTYPE svg PUBLIC "-//W3C//DTD SVG 1.1//EN" "http://www.w3.org/Graphics/SVG/1.1/DTD/svg11.dtd"><svg width="100%" height="100%" viewBox="0 0 512 512" version="1.1" xmlns="http://www.w3.org/2000/svg" xmlns:xlink="http://www.w3.org/1999/xlink" xml:space="preserve" xmlns:serif="http://www.serif.com/" style="fill-rule:evenodd;clip-rule:evenodd;stroke-linejoin:round;stroke-miterlimit:1.41421;"><g><path d="M341.128,283.87c-27.47,0 -49.819,-22.349 -49.819,-49.819c0,-27.47 22.348,-49.819 49.819,-49.819c27.47,0 49.819,22.348 49.819,49.819c0,27.471 -22.349,49.819 -49.819,49.819Zm0,-84.632c-19.196,0 -34.814,15.617 -34.814,34.814c0,19.197 15.618,34.814 34.814,34.814c19.196,0 34.814,-15.618 34.814,-34.814c0,-19.196 -15.619,-34.814 -34.814,-34.814Z" style="fill:#4b3f72;fill-rule:nonzero;"/><path d="M341.128,376.161c-78.36,0 -142.11,-63.75 -142.11,-142.11c0,-78.359 63.75,-142.109 142.11,-142.109c78.36,0 142.11,63.75 142.11,142.109c-0.001,78.36 -63.751,142.11 -142.11,142.11Zm0,-269.214c-70.085,0 -127.105,57.019 -127.105,127.104c0,70.086 57.019,127.105 127.105,127.105c70.086,0 127.105,-57.019 127.105,-127.105c-0.001,-70.085 -57.02,-127.104 -127.105,-127.104Z" style="fill:#4b3f72;fill-rule:nonzero;"/><path d="M341.128,135.71c-4.144,0 -7.503,-3.359 -7.503,-7.503l0,-57.526c0,-4.144 3.359,-7.503 7.503,-7.503c4.144,0 7.503,3.359 7.503,7.503l0,57.526c-0.001,4.144 -3.36,7.503 -7.503,7.503Z" style="fill:#4b3f72;fill-rule:nonzero;"/><path d="M341.128,404.924c-4.144,0 -7.503,-3.359 -7.503,-7.503l0,-57.526c0,-4.143 3.359,-7.503 7.503,-7.503c4.144,0 7.503,3.359 7.503,7.503l0,57.526c-0.001,4.144 -3.36,7.503 -7.503,7.503Z" style="fill:#4b3f72;fill-rule:nonzero;"/><path d="M504.497,241.554l-57.526,0c-4.144,0 -7.503,-3.359 -7.503,-7.503c0,-4.144 3.359,-7.503 7.503,-7.503l57.526,0c4.144,0 7.503,3.359 7.503,7.503c0,4.144 -3.359,7.503 -7.503,7.503Z" style="fill:#4b3f72;fill-rule:nonzero;"/></g><path d="M176.164,446.312c1.248,2.161 3.901,3.083 6.212,2.143c4.751,-1.932 9.429,-4.196 13.996,-6.833c54.537,-31.487 73.223,-101.224 41.736,-155.761c-31.487,-54.537 -101.224,-73.223 -155.761,-41.736c-4.567,2.637 -8.867,5.556 -12.915,8.704c-1.97,1.532 -2.498,4.29 -1.25,6.451l107.982,187.032Z" style="fill:#db504a;fill-rule:nonzero;"/><path d="M238.109,285.861c-1.134,-1.964 -2.324,-3.877 -3.554,-5.747c23.541,47.767 1.639,109.067 -50.935,139.42c-5.866,3.387 -11.879,6.218 -17.967,8.572l10.512,18.207c1.248,2.161 3.901,3.083 6.212,2.143c4.751,-1.932 9.429,-4.196 13.996,-6.833c54.537,-31.488 73.223,-101.225 41.736,-155.762Z" style="fill:#d1312a;fill-rule:nonzero;"/><path d="M122.167,397.184c0.607,1.052 1.782,1.64 2.986,1.48c55.739,-7.409 131.051,-29.841 167.583,-50.932c50.642,-29.238 48.141,-121.204 48.141,-121.204c0,0 -78.395,-48.149 -129.037,-18.911c-36.532,21.092 -93.614,75.098 -127.9,119.665c-0.741,0.963 -0.819,2.274 -0.212,3.326l38.439,66.576Z" style="fill:#f4f4f4;fill-rule:nonzero;"/><path d="M281.136,327.639c-36.967,21.343 -110.966,48.694 -163.766,61.237l4.797,8.308c0.607,1.052 1.782,1.64 2.986,1.479c55.739,-7.409 131.051,-29.841 167.583,-50.932c50.642,-29.238 48.141,-121.204 48.141,-121.204c0,0.002 -9.1,71.874 -59.741,101.112Z" style="fill:#c5cbd3;fill-rule:nonzero;"/><circle cx="227.9" cy="291.75" r="30.22" style="fill:#1f2041;"/><path d="M249.164,198.211l70.379,121.9c22.826,-38.462 21.334,-93.584 21.334,-93.584c0,0 -46.991,-28.853 -91.713,-28.316Z" style="fill:#8d6a9f;fill-rule:nonzero;"/><path d="M340.897,228.291c0,-0.099 -0.001,-0.195 -0.001,-0.287c0,-0.095 -0.001,-0.183 -0.002,-0.269c-0.001,-0.074 -0.001,-0.153 -0.002,-0.221c-0.001,-0.139 -0.003,-0.267 -0.004,-0.377c0,-0.038 -0.001,-0.066 -0.001,-0.1c-0.001,-0.081 -0.002,-0.16 -0.004,-0.221c0,-0.019 -0.001,-0.036 -0.001,-0.053c-0.001,-0.065 -0.002,-0.121 -0.003,-0.158c0,-0.006 0,-0.016 0,-0.021c-0.001,-0.033 -0.001,-0.058 -0.001,-0.058c0,0.003 -5.461,43.082 -31.426,76.104l10.092,17.48c18.872,-31.799 21.121,-74.983 21.334,-88.992c0.001,-0.054 0.002,-0.108 0.002,-0.161c0.003,-0.225 0.006,-0.444 0.008,-0.653c0,-0.029 0,-0.057 0.001,-0.086c0.004,-0.402 0.006,-0.772 0.008,-1.112l0,-0.815Z" style="fill:#79598a;fill-rule:nonzero;"/><path d="M79.655,372.615c-16.628,-8.442 -36.178,-7.927 -52.3,1.379c-16.119,9.306 -26.341,25.981 -27.344,44.603c-0.159,2.967 1.447,5.749 4.095,7.093c7.871,3.996 16.395,5.985 24.902,5.985c9.465,0 18.909,-2.463 27.398,-7.365c16.119,-9.306 26.341,-25.981 27.344,-44.602c0.16,-2.966 -1.446,-5.747 -4.095,-7.093Z" style="fill:#ffc857;fill-rule:nonzero;"/><path d="M82.802,378.065c-4.623,12.352 -17.007,25.283 -33.126,34.589c-8.489,4.901 -17.333,8.403 -25.702,10.302c-7.521,1.707 -14.659,2.119 -20.817,1.091c-1.036,-0.173 -1.769,-0.633 -2.152,-1.295c0.713,1.234 1.776,2.266 3.101,2.939c7.871,3.996 16.395,5.985 24.902,5.985c9.465,0 18.909,-2.463 27.398,-7.365c16.119,-9.306 26.341,-25.981 27.344,-44.602c0.08,-1.484 -0.282,-2.921 -0.994,-4.155c0.382,0.662 0.414,1.527 0.046,2.511Z" style="fill:#dd8d19;fill-rule:nonzero;"/></svg>