<?xml version="1.0" encoding="UTF-8" standalone="no"?><!DOCTYPE svg PUBLIC "-//W3C//DTD SVG 1.1//EN" "http://www.w3.org/Graphics/SVG/1.1/DTD/svg11.dtd"><svg width="100%" height="100%" viewBox="0 0 221 169" version="1.1" xmlns="http://www.w3.org/2000/svg" xmlns:xlink="http://www.w3.org/1999/xlink" xml:space="preserve" xmlns:serif="http://www.serif.com/" style="fill-rule:evenodd;clip-rule:evenodd;stroke-linejoin:round;stroke-miterlimit:1.41421;"><rect id="Plan-de-travail2" serif:id="Plan de travail2" x="0" y="0" width="220.677" height="168.611" style="fill:none;"/><g><g><path d="M143.586,95.742c-10.729,0 -19.457,-8.729 -19.457,-19.457c0,-10.729 8.728,-19.457 19.457,-19.457c10.728,0 19.456,8.728 19.456,19.457c0,10.728 -8.728,19.457 -19.456,19.457Zm0,-33.054c-7.498,0 -13.597,6.1 -13.597,13.597c0,7.497 6.099,13.597 13.597,13.597c7.497,0 13.596,-6.1 13.596,-13.597c0,-7.497 -6.1,-13.597 -13.596,-13.597Z" style="fill:#4b3f72;fill-rule:nonzero;"/><path d="M143.586,131.786c-30.604,0 -55.502,-24.898 -55.502,-55.501c0,-30.604 24.898,-55.502 55.502,-55.502c30.603,0 55.501,24.898 55.501,55.502c0,30.603 -24.898,55.501 -55.501,55.501Zm0,-105.142c-27.372,0 -49.642,22.269 -49.642,49.641c0,27.372 22.269,49.641 49.642,49.641c27.372,0 49.641,-22.269 49.641,-49.641c-0.001,-27.372 -22.27,-49.641 -49.641,-49.641Z" style="fill:#4b3f72;fill-rule:nonzero;"/><path d="M143.586,37.877c-1.619,0 -2.931,-1.312 -2.931,-2.93l0,-22.467c0,-1.619 1.312,-2.93 2.931,-2.93c1.618,0 2.93,1.311 2.93,2.93l0,22.467c-0.001,1.618 -1.312,2.93 -2.93,2.93Z" style="fill:#4b3f72;fill-rule:nonzero;"/><path d="M143.586,143.02c-1.619,0 -2.931,-1.312 -2.931,-2.931l0,-22.467c0,-1.618 1.312,-2.93 2.931,-2.93c1.618,0 2.93,1.312 2.93,2.93l0,22.467c-0.001,1.619 -1.312,2.931 -2.93,2.931Z" style="fill:#4b3f72;fill-rule:nonzero;"/><path d="M207.39,79.215l-22.467,0c-1.619,0 -2.93,-1.312 -2.93,-2.93c0,-1.619 1.311,-2.931 2.93,-2.931l22.467,0c1.618,0 2.93,1.312 2.93,2.931c0,1.618 -1.312,2.93 -2.93,2.93Z" style="fill:#4b3f72;fill-rule:nonzero;"/></g><path d="M79.158,159.184c0.488,0.844 1.524,1.204 2.426,0.837c1.856,-0.755 3.683,-1.639 5.467,-2.669c21.299,-12.297 28.597,-39.533 16.3,-60.833c-12.298,-21.299 -39.534,-28.597 -60.833,-16.3c-1.784,1.03 -3.463,2.17 -5.044,3.399c-0.77,0.599 -0.976,1.676 -0.488,2.52l42.172,73.046Z" style="fill:#db504a;fill-rule:nonzero;"/><path d="M103.351,96.519c-0.443,-0.767 -0.908,-1.514 -1.388,-2.244c9.194,18.655 0.64,42.596 -19.893,54.451c-2.291,1.322 -4.639,2.428 -7.017,3.347l4.106,7.111c0.487,0.844 1.523,1.204 2.426,0.837c1.855,-0.754 3.682,-1.639 5.466,-2.668c21.3,-12.298 28.597,-39.534 16.3,-60.834Z" style="fill:#d1312a;fill-rule:nonzero;"/><path d="M58.07,139.997c0.237,0.411 0.696,0.64 1.166,0.578c21.769,-2.894 51.182,-11.655 65.45,-19.892c19.778,-11.419 18.801,-47.337 18.801,-47.337c0,0 -30.617,-18.804 -50.395,-7.385c-14.268,8.237 -36.562,29.329 -49.952,46.735c-0.289,0.376 -0.32,0.888 -0.083,1.299l15.013,26.002Z" style="fill:#f4f4f4;fill-rule:nonzero;"/><path d="M120.155,112.836c-14.437,8.335 -43.338,19.017 -63.959,23.916l1.874,3.245c0.237,0.411 0.696,0.64 1.166,0.577c21.769,-2.893 51.182,-11.654 65.45,-19.891c19.778,-11.419 18.801,-47.337 18.801,-47.337c0,0.001 -3.554,28.071 -23.332,39.49Z" style="fill:#c5cbd3;fill-rule:nonzero;"/><circle cx="99.364" cy="98.819" r="11.803" style="fill:#1f2041;"/><path d="M107.669,62.287l27.486,47.609c8.915,-15.022 8.332,-36.55 8.332,-36.55c0,0 -18.352,-11.269 -35.818,-11.059Z" style="fill:#8d6a9f;fill-rule:nonzero;"/><path d="M143.495,74.035c0,-0.039 0,-0.076 0,-0.112c0,-0.037 0,-0.072 -0.001,-0.105c0,-0.029 0,-0.06 -0.001,-0.086c0,-0.055 -0.001,-0.105 -0.001,-0.148c0,-0.015 -0.001,-0.025 -0.001,-0.039c0,-0.031 0,-0.062 -0.001,-0.086c0,-0.007 -0.001,-0.014 -0.001,-0.021c0,-0.025 0,-0.047 -0.001,-0.061c0,-0.003 0,-0.007 0,-0.009c0,-0.013 0,-0.022 0,-0.022c0,0.001 -2.133,16.826 -12.274,29.722l3.942,6.827c7.37,-12.419 8.249,-29.285 8.332,-34.756c0,-0.021 0.001,-0.042 0.001,-0.063c0.001,-0.088 0.002,-0.173 0.003,-0.255c0,-0.011 0,-0.022 0,-0.033c0.002,-0.157 0.003,-0.302 0.003,-0.435l0,-0.318Z" style="fill:#79598a;fill-rule:nonzero;"/><path d="M41.466,130.401c-6.494,-3.297 -14.129,-3.096 -20.426,0.539c-6.295,3.634 -10.287,10.147 -10.679,17.42c-0.062,1.158 0.565,2.245 1.6,2.77c3.074,1.56 6.403,2.337 9.725,2.337c3.697,0 7.385,-0.962 10.7,-2.876c6.296,-3.635 10.288,-10.147 10.68,-17.42c0.062,-1.158 -0.565,-2.244 -1.6,-2.77Z" style="fill:#ffc857;fill-rule:nonzero;"/><path d="M42.695,132.53c-1.805,4.824 -6.642,9.874 -12.937,13.509c-3.315,1.914 -6.769,3.281 -10.038,4.023c-2.937,0.667 -5.725,0.828 -8.13,0.426c-0.405,-0.067 -0.691,-0.247 -0.841,-0.506c0.279,0.482 0.694,0.885 1.212,1.148c3.074,1.561 6.403,2.338 9.725,2.338c3.697,0 7.385,-0.962 10.7,-2.877c6.296,-3.634 10.288,-10.147 10.68,-17.419c0.031,-0.58 -0.11,-1.141 -0.388,-1.623c0.149,0.259 0.161,0.596 0.017,0.981Z" style="fill:#dd8d19;fill-rule:nonzero;"/></g></svg>