<?xml version="1.0" standalone="no"?>
<!DOCTYPE svg PUBLIC "-//W3C//DTD SVG 20010904//EN"
 "http://www.w3.org/TR/2001/REC-SVG-20010904/DTD/svg10.dtd">
<svg version="1.0" xmlns="http://www.w3.org/2000/svg"
 width="700.000000pt" height="700.000000pt" viewBox="0 0 700.000000 700.000000"
 preserveAspectRatio="xMidYMid meet">
<metadata>
Created by potrace 1.11, written by Peter Selinger 2001-2013
</metadata>
<g transform="translate(0.000000,700.000000) scale(0.100000,-0.100000)"
fill="#000000" stroke="none">
<path d="M4623 6125 c-52 -22 -60 -51 -61 -224 -1 -84 -3 -155 -4 -157 -2 -1
-26 -5 -53 -8 -297 -34 -486 -88 -715 -204 -94 -48 -278 -163 -312 -195 -7 -6
-33 -28 -58 -48 -84 -67 -232 -221 -280 -289 -13 -19 -33 -44 -43 -55 -28 -31
-133 -204 -177 -293 -59 -119 -106 -251 -146 -407 -3 -11 -11 -56 -19 -100
-10 -55 -21 -85 -34 -95 -11 -8 -68 -51 -128 -95 -59 -44 -131 -99 -159 -122
-28 -24 -53 -41 -56 -38 -6 6 -153 44 -198 51 -19 3 -46 8 -60 11 -58 13 -348
11 -435 -3 -185 -29 -295 -64 -467 -146 -108 -52 -261 -150 -283 -181 -19 -28
-10 -60 46 -155 27 -46 49 -85 49 -87 0 -2 21 -39 46 -82 26 -43 55 -91 64
-108 9 -16 51 -89 93 -160 116 -200 115 -165 3 -301 -79 -96 -96 -122 -91
-141 3 -13 47 -95 97 -181 50 -86 100 -173 110 -192 19 -32 198 -344 291 -504
l39 -68 57 6 c69 8 110 14 180 26 30 6 62 10 72 10 16 0 49 -51 157 -240 11
-19 46 -80 77 -135 31 -55 65 -113 74 -130 100 -179 134 -225 168 -225 24 0
180 78 265 131 220 140 408 334 525 544 70 124 135 285 162 401 l12 51 92 36
c51 19 115 45 142 57 l51 22 104 -50 c124 -58 221 -94 345 -127 85 -23 107
-27 188 -40 17 -3 43 -7 57 -10 14 -2 52 -7 85 -10 32 -3 60 -7 62 -9 2 -1 4
-71 5 -153 1 -171 9 -202 59 -225 42 -20 81 -13 113 18 31 31 35 59 33 222 -1
74 1 136 5 138 3 2 33 7 65 9 32 3 65 7 73 10 8 2 39 7 69 10 72 9 76 10 183
39 494 135 905 445 1167 880 117 193 220 471 247 661 3 28 8 59 10 70 2 11 7
47 10 80 3 33 7 65 8 70 3 7 63 11 162 12 174 2 192 7 220 58 15 29 16 39 5
74 -19 64 -47 73 -215 73 -78 0 -148 2 -157 4 -12 3 -18 22 -22 77 -4 39 -9
83 -12 97 -2 13 -7 42 -11 65 -5 36 -18 94 -44 195 -5 19 -19 60 -30 90 -12
30 -25 67 -30 82 -5 15 -33 78 -63 140 -219 448 -602 793 -1077 971 -104 39
-266 82 -345 92 -27 3 -57 8 -65 10 -8 2 -43 6 -78 9 -35 3 -66 8 -70 10 -4 2
-6 71 -6 153 2 110 -2 156 -12 179 -23 49 -81 71 -131 49z m-62 -657 c0 -35 0
-99 0 -143 0 -44 4 -94 10 -112 25 -76 134 -89 179 -20 11 16 15 62 17 172 1
83 2 154 2 159 1 8 101 3 161 -8 14 -3 39 -7 55 -10 181 -30 415 -121 585
-226 391 -242 663 -613 778 -1060 21 -82 44 -217 46 -277 l1 -38 -136 -1
c-179 -2 -205 -7 -229 -47 -24 -38 -25 -68 -6 -105 24 -47 51 -54 197 -54 179
1 178 1 173 -45 -46 -488 -291 -939 -664 -1220 -41 -32 -77 -60 -80 -63 -25
-28 -235 -137 -375 -195 -121 -50 -344 -99 -454 -100 l-54 0 -2 155 c-1 85 -5
163 -9 172 -21 46 -102 64 -148 34 -38 -25 -45 -52 -46 -176 -1 -63 -1 -132
-1 -154 l-1 -38 -62 5 c-151 14 -312 51 -459 108 -94 36 -95 26 16 99 145 93
289 272 384 473 38 81 101 255 120 332 l10 40 108 0 c159 1 289 47 410 144
307 248 343 697 78 988 -203 224 -527 285 -804 151 -94 -46 -205 -140 -249
-211 -19 -32 -12 -33 -162 11 -58 17 -141 38 -185 46 -44 9 -93 18 -110 22
-16 3 -97 7 -180 9 -171 4 -299 -11 -414 -51 -40 -14 -75 -23 -78 -21 -7 7 23
114 57 202 199 517 634 913 1160 1057 103 29 234 53 303 56 l57 3 1 -63z m248
-1219 c238 -75 377 -329 312 -569 -25 -90 -57 -145 -122 -210 -89 -91 -193
-138 -309 -141 -82 -2 -79 -5 -68 49 17 92 38 325 38 427 l0 103 -82 43 c-46
24 -126 63 -178 87 -52 24 -98 47 -103 51 -12 12 84 96 148 129 120 62 234 71
364 31z"/>
<path d="M623 1974 c-192 -33 -384 -154 -489 -309 -95 -140 -155 -356 -121
-437 29 -69 214 -130 392 -129 107 0 239 32 329 78 98 50 217 153 276 238 99
144 161 373 121 448 -21 40 -148 96 -252 112 -79 13 -182 12 -256 -1z"/>
</g>
</svg>
